<?xml version="1.0" standalone="no"?><!-- Generator: Gravit.io --><svg xmlns="http://www.w3.org/2000/svg" xmlns:xlink="http://www.w3.org/1999/xlink" style="isolation:isolate" viewBox="0 0 512 512" width="512px" height="512px"><defs><clipPath id="_clipPath_UgOWjAZHCRdnJfoTcc3OGMeuGmoxu5bQ"><rect width="512" height="512"/></clipPath></defs><g clip-path="url(#_clipPath_UgOWjAZHCRdnJfoTcc3OGMeuGmoxu5bQ)"><circle vector-effect="non-scaling-stroke" cx="256.2657471169132" cy="256" r="248.7342528830867" fill="rgb(88,120,249)" stroke-width="5" stroke="rgb(46,46,46)" stroke-linejoin="miter" stroke-linecap="square" stroke-miterlimit="3"/><path d=" M 336.583 302.623 C 331.693 302.623 327.724 306.592 327.724 311.482 C 327.724 316.373 331.693 320.342 336.583 320.342 C 341.473 320.342 345.443 316.373 345.443 311.482 C 345.443 306.592 341.473 302.623 336.583 302.623 Z  M 174.249 190.991 C 179.142 190.991 183.108 187.025 183.108 182.132 L 183.108 146.693 C 183.108 141.799 179.142 137.833 174.249 137.833 C 169.355 137.833 165.389 141.799 165.389 146.693 L 165.389 182.132 C 165.389 187.025 169.355 190.991 174.249 190.991 Z  M 418.383 233.441 L 418.383 178.207 C 418.383 159.172 402.897 143.686 383.861 143.686 L 345.197 143.686 L 345.197 91.213 C 345.197 79.791 335.906 70.5 324.484 70.5 L 196.064 70.5 C 184.643 70.5 175.352 79.791 175.352 91.213 L 175.352 116.068 L 154.639 116.068 C 143.217 116.068 133.926 125.359 133.926 136.781 L 133.926 143.686 L 127.021 143.686 C 107.986 143.686 92.5 159.172 92.5 178.207 L 92.5 389.479 C 92.5 408.514 107.986 424 127.021 424 L 338.293 424 C 354.963 424 368.912 412.122 372.119 396.383 L 383.861 396.383 C 402.897 396.383 418.383 380.897 418.383 361.861 L 418.383 343.91 L 425.287 343.91 C 436.709 343.91 446 334.619 446 323.197 L 446 261.059 C 446 245.831 433.61 233.441 418.383 233.441 Z  M 432.191 261.059 C 432.191 268.686 426.01 274.867 418.383 274.867 L 418.383 247.25 C 425.996 247.25 432.191 253.445 432.191 261.059 Z  M 383.861 157.494 C 395.283 157.494 404.574 166.785 404.574 178.207 L 404.574 274.867 L 372.814 274.867 L 372.814 233.441 C 372.814 216.771 360.937 202.822 345.197 199.616 L 345.197 157.494 L 383.861 157.494 Z  M 189.16 91.213 C 189.16 87.405 192.256 84.309 196.064 84.309 L 324.484 84.309 C 328.293 84.309 331.389 87.405 331.389 91.213 L 331.389 198.92 L 299.629 198.92 L 299.629 136.781 C 299.629 125.359 290.338 116.068 278.916 116.068 L 189.16 116.068 L 189.16 91.213 Z  M 258.203 198.92 L 258.203 129.877 L 278.916 129.877 C 282.724 129.877 285.82 132.973 285.82 136.781 L 285.82 198.92 L 258.203 198.92 Z  M 216.777 198.92 L 216.777 129.877 L 244.395 129.877 L 244.395 198.92 L 216.777 198.92 Z  M 147.734 136.781 C 147.734 132.973 150.831 129.877 154.639 129.877 L 202.969 129.877 L 202.969 198.92 L 147.734 198.92 L 147.734 136.781 Z  M 127.021 157.494 L 133.926 157.494 L 133.926 198.92 L 128.499 198.92 C 117.088 198.92 106.309 190.656 106.309 178.207 C 106.309 166.785 115.6 157.494 127.021 157.494 Z  M 338.293 410.191 L 127.021 410.191 C 115.6 410.191 106.309 400.9 106.309 389.479 L 106.309 205.398 C 112.482 209.996 120.236 212.729 128.499 212.729 L 338.293 212.729 C 349.715 212.729 359.006 222.02 359.006 233.441 L 359.006 274.867 L 310.676 274.867 C 299.254 274.867 289.963 284.158 289.963 295.58 L 289.963 323.197 C 289.963 334.619 299.254 343.91 310.676 343.91 L 359.006 343.91 L 359.006 389.479 C 359.006 400.9 349.715 410.191 338.293 410.191 Z  M 404.574 361.861 C 404.574 373.283 395.283 382.574 383.861 382.574 L 372.814 382.574 L 372.814 343.91 L 404.574 343.91 L 404.574 361.861 Z  M 425.287 330.102 L 310.676 330.102 C 306.868 330.102 303.771 327.005 303.771 323.197 L 303.771 295.58 C 303.771 291.772 306.868 288.676 310.676 288.676 L 418.383 288.676 C 423.31 288.676 428.038 287.387 432.191 284.978 L 432.191 323.197 C 432.191 327.005 429.095 330.102 425.287 330.102 Z  M 407.461 301.737 L 366.706 301.737 C 361.813 301.737 357.846 305.703 357.846 310.596 C 357.846 315.49 361.813 319.456 366.706 319.456 L 407.461 319.456 C 412.354 319.456 416.32 315.49 416.32 310.596 C 416.32 305.703 412.354 301.737 407.461 301.737 Z  M 139.86 355.69 L 139.316 355.69 L 139.316 281.337 L 116.054 281.337 L 116.054 280.794 L 120.456 271.445 L 173.449 271.445 L 173.449 271.989 L 169.046 281.337 L 150.186 281.337 L 150.186 350.798 L 139.86 355.69 Z  M 179.699 355.69 L 179.156 355.69 L 179.156 274.163 L 184.917 271.445 L 219.376 271.445 L 219.376 271.989 L 214.973 281.337 L 190.026 281.337 L 190.026 307.535 L 219.376 307.535 L 219.376 308.078 L 214.973 317.427 L 190.026 317.427 L 190.026 350.798 L 179.699 355.69 Z  M 247.801 355.69 L 247.258 355.69 L 247.258 281.337 L 223.996 281.337 L 223.996 280.794 L 228.398 271.445 L 281.39 271.445 L 281.39 271.989 L 276.988 281.337 L 258.128 281.337 L 258.128 350.798 L 247.801 355.69 Z " fill-rule="evenodd" fill="rgb(255,253,253)"/></g></svg>